%TF.GenerationSoftware,KiCad,Pcbnew,(5.1.6)-1*%
%TF.CreationDate,2021-03-09T14:24:23+01:00*%
%TF.ProjectId,m32_LedSignal,6d33325f-4c65-4645-9369-676e616c2e6b,rev?*%
%TF.SameCoordinates,Original*%
%TF.FileFunction,Copper,L1,Top*%
%TF.FilePolarity,Positive*%
%FSLAX46Y46*%
G04 Gerber Fmt 4.6, Leading zero omitted, Abs format (unit mm)*
G04 Created by KiCad (PCBNEW (5.1.6)-1) date 2021-03-09 14:24:23*
%MOMM*%
%LPD*%
G01*
G04 APERTURE LIST*
%TA.AperFunction,ComponentPad*%
%ADD10R,1.000000X1.000000*%
%TD*%
%TA.AperFunction,ComponentPad*%
%ADD11C,1.000000*%
%TD*%
%TA.AperFunction,ViaPad*%
%ADD12C,0.800000*%
%TD*%
%TA.AperFunction,Conductor*%
%ADD13C,0.800000*%
%TD*%
%TA.AperFunction,Conductor*%
%ADD14C,0.254000*%
%TD*%
G04 APERTURE END LIST*
D10*
%TO.P,J1,1*%
%TO.N,+5V*%
X24140000Y-15360000D03*
D11*
%TO.P,J1,2*%
%TO.N,/RED*%
X24140000Y-16610000D03*
%TO.P,J1,3*%
%TO.N,/GREEN*%
X24140000Y-17860000D03*
%TO.P,J1,4*%
%TO.N,Net-(J1-Pad4)*%
X24140000Y-19110000D03*
%TO.P,J1,5*%
%TO.N,Net-(J1-Pad5)*%
X24140000Y-20360000D03*
%TO.P,J1,6*%
%TO.N,GND*%
X24140000Y-21610000D03*
%TD*%
%TO.P,D2,1*%
%TO.N,Net-(D2-Pad1)*%
%TA.AperFunction,SMDPad,CuDef*%
G36*
G01*
X18800000Y-19120000D02*
X18800000Y-20380000D01*
G75*
G02*
X18380000Y-20800000I-420000J0D01*
G01*
X17120000Y-20800000D01*
G75*
G02*
X16700000Y-20380000I0J420000D01*
G01*
X16700000Y-19120000D01*
G75*
G02*
X17120000Y-18700000I420000J0D01*
G01*
X18380000Y-18700000D01*
G75*
G02*
X18800000Y-19120000I0J-420000D01*
G01*
G37*
%TD.AperFunction*%
%TO.P,D2,2*%
%TO.N,+5V*%
%TA.AperFunction,SMDPad,CuDef*%
G36*
G01*
X20200000Y-18900000D02*
X20200000Y-20600000D01*
G75*
G02*
X20000000Y-20800000I-200000J0D01*
G01*
X19400000Y-20800000D01*
G75*
G02*
X19200000Y-20600000I0J200000D01*
G01*
X19200000Y-18900000D01*
G75*
G02*
X19400000Y-18700000I200000J0D01*
G01*
X20000000Y-18700000D01*
G75*
G02*
X20200000Y-18900000I0J-200000D01*
G01*
G37*
%TD.AperFunction*%
%TD*%
%TO.P,D1,2*%
%TO.N,+5V*%
%TA.AperFunction,SMDPad,CuDef*%
G36*
G01*
X18225000Y-17880000D02*
X18225000Y-16620000D01*
G75*
G02*
X18645000Y-16200000I420000J0D01*
G01*
X19905000Y-16200000D01*
G75*
G02*
X20325000Y-16620000I0J-420000D01*
G01*
X20325000Y-17880000D01*
G75*
G02*
X19905000Y-18300000I-420000J0D01*
G01*
X18645000Y-18300000D01*
G75*
G02*
X18225000Y-17880000I0J420000D01*
G01*
G37*
%TD.AperFunction*%
%TO.P,D1,1*%
%TO.N,Net-(D1-Pad1)*%
%TA.AperFunction,SMDPad,CuDef*%
G36*
G01*
X16825000Y-18100000D02*
X16825000Y-16400000D01*
G75*
G02*
X17025000Y-16200000I200000J0D01*
G01*
X17625000Y-16200000D01*
G75*
G02*
X17825000Y-16400000I0J-200000D01*
G01*
X17825000Y-18100000D01*
G75*
G02*
X17625000Y-18300000I-200000J0D01*
G01*
X17025000Y-18300000D01*
G75*
G02*
X16825000Y-18100000I0J200000D01*
G01*
G37*
%TD.AperFunction*%
%TD*%
D12*
%TO.N,+5V*%
X21475000Y-15375000D03*
%TO.N,GND*%
X16200000Y-26200000D03*
X21625000Y-21775000D03*
%TO.N,Net-(D1-Pad1)*%
X15950000Y-17250000D03*
%TO.N,Net-(D2-Pad1)*%
X15950000Y-19700000D03*
%TD*%
D13*
%TO.N,+5V*%
X19700000Y-17675000D02*
X19700000Y-19750000D01*
X19275000Y-17250000D02*
X19700000Y-17675000D01*
X19275000Y-17250000D02*
X21325000Y-17250000D01*
X21325000Y-17250000D02*
X21475000Y-17100000D01*
X21475000Y-17100000D02*
X21475000Y-15375000D01*
X21475000Y-15375000D02*
X21475000Y-15350000D01*
%TO.N,Net-(D1-Pad1)*%
X17325000Y-17250000D02*
X16000000Y-17250000D01*
%TO.N,Net-(D2-Pad1)*%
X17700000Y-19700000D02*
X17750000Y-19750000D01*
X15950000Y-19700000D02*
X17700000Y-19700000D01*
%TD*%
D14*
%TO.N,GND*%
G36*
X35340001Y-35340000D02*
G01*
X1660000Y-35340000D01*
X1660000Y-31789721D01*
X2865000Y-31789721D01*
X2865000Y-32210279D01*
X2947047Y-32622756D01*
X3107988Y-33011302D01*
X3341637Y-33360983D01*
X3639017Y-33658363D01*
X3988698Y-33892012D01*
X4377244Y-34052953D01*
X4789721Y-34135000D01*
X5210279Y-34135000D01*
X5622756Y-34052953D01*
X6011302Y-33892012D01*
X6360983Y-33658363D01*
X6658363Y-33360983D01*
X6892012Y-33011302D01*
X7052953Y-32622756D01*
X7135000Y-32210279D01*
X7135000Y-31789721D01*
X29865000Y-31789721D01*
X29865000Y-32210279D01*
X29947047Y-32622756D01*
X30107988Y-33011302D01*
X30341637Y-33360983D01*
X30639017Y-33658363D01*
X30988698Y-33892012D01*
X31377244Y-34052953D01*
X31789721Y-34135000D01*
X32210279Y-34135000D01*
X32622756Y-34052953D01*
X33011302Y-33892012D01*
X33360983Y-33658363D01*
X33658363Y-33360983D01*
X33892012Y-33011302D01*
X34052953Y-32622756D01*
X34135000Y-32210279D01*
X34135000Y-31789721D01*
X34052953Y-31377244D01*
X33892012Y-30988698D01*
X33658363Y-30639017D01*
X33360983Y-30341637D01*
X33011302Y-30107988D01*
X32622756Y-29947047D01*
X32210279Y-29865000D01*
X31789721Y-29865000D01*
X31377244Y-29947047D01*
X30988698Y-30107988D01*
X30639017Y-30341637D01*
X30341637Y-30639017D01*
X30107988Y-30988698D01*
X29947047Y-31377244D01*
X29865000Y-31789721D01*
X7135000Y-31789721D01*
X7052953Y-31377244D01*
X6892012Y-30988698D01*
X6658363Y-30639017D01*
X6360983Y-30341637D01*
X6011302Y-30107988D01*
X5622756Y-29947047D01*
X5210279Y-29865000D01*
X4789721Y-29865000D01*
X4377244Y-29947047D01*
X3988698Y-30107988D01*
X3639017Y-30341637D01*
X3341637Y-30639017D01*
X3107988Y-30988698D01*
X2947047Y-31377244D01*
X2865000Y-31789721D01*
X1660000Y-31789721D01*
X1660000Y-22388166D01*
X23541439Y-22388166D01*
X23576550Y-22601588D01*
X23780826Y-22692458D01*
X23998905Y-22741731D01*
X24222406Y-22747511D01*
X24442740Y-22709577D01*
X24651440Y-22629387D01*
X24703450Y-22601588D01*
X24738561Y-22388166D01*
X24140000Y-21789605D01*
X23541439Y-22388166D01*
X1660000Y-22388166D01*
X1660000Y-19700000D01*
X14909993Y-19700000D01*
X14915000Y-19750838D01*
X14915000Y-19801939D01*
X14924969Y-19852057D01*
X14929976Y-19902895D01*
X14944804Y-19951777D01*
X14954774Y-20001898D01*
X14974331Y-20049113D01*
X14989159Y-20097993D01*
X15013238Y-20143042D01*
X15032795Y-20190256D01*
X15061186Y-20232746D01*
X15085266Y-20277797D01*
X15117672Y-20317284D01*
X15146063Y-20359774D01*
X15182196Y-20395907D01*
X15214604Y-20435396D01*
X15254092Y-20467803D01*
X15290226Y-20503937D01*
X15332716Y-20532328D01*
X15372203Y-20564734D01*
X15417254Y-20588814D01*
X15459744Y-20617205D01*
X15506958Y-20636762D01*
X15552007Y-20660841D01*
X15600887Y-20675669D01*
X15648102Y-20695226D01*
X15698223Y-20705196D01*
X15747105Y-20720024D01*
X15797943Y-20725031D01*
X15848061Y-20735000D01*
X16127330Y-20735000D01*
X16142469Y-20784907D01*
X16240245Y-20967833D01*
X16371830Y-21128170D01*
X16532167Y-21259755D01*
X16715093Y-21357531D01*
X16913580Y-21417741D01*
X17120000Y-21438072D01*
X18380000Y-21438072D01*
X18586420Y-21417741D01*
X18784907Y-21357531D01*
X18920223Y-21285203D01*
X18934392Y-21296831D01*
X19079284Y-21374278D01*
X19236500Y-21421969D01*
X19400000Y-21438072D01*
X20000000Y-21438072D01*
X20163500Y-21421969D01*
X20320716Y-21374278D01*
X20465608Y-21296831D01*
X20592606Y-21192606D01*
X20696831Y-21065608D01*
X20774278Y-20920716D01*
X20821969Y-20763500D01*
X20838072Y-20600000D01*
X20838072Y-18900000D01*
X20821969Y-18736500D01*
X20774278Y-18579284D01*
X20742335Y-18519523D01*
X20784755Y-18467833D01*
X20882481Y-18285000D01*
X21274172Y-18285000D01*
X21325000Y-18290006D01*
X21375828Y-18285000D01*
X21375838Y-18285000D01*
X21527895Y-18270024D01*
X21722993Y-18210841D01*
X21902797Y-18114734D01*
X22060396Y-17985396D01*
X22092807Y-17945903D01*
X22170903Y-17867807D01*
X22210396Y-17835396D01*
X22339734Y-17677797D01*
X22435841Y-17497993D01*
X22495024Y-17302895D01*
X22510000Y-17150838D01*
X22510000Y-17150829D01*
X22515006Y-17100001D01*
X22510000Y-17049173D01*
X22510000Y-15273061D01*
X22504908Y-15247461D01*
X22495024Y-15147106D01*
X22435841Y-14952008D01*
X22386663Y-14860000D01*
X23001928Y-14860000D01*
X23001928Y-15860000D01*
X23014188Y-15984482D01*
X23050498Y-16104180D01*
X23090220Y-16178494D01*
X23048617Y-16278933D01*
X23005000Y-16498212D01*
X23005000Y-16721788D01*
X23048617Y-16941067D01*
X23134176Y-17147624D01*
X23192559Y-17235000D01*
X23134176Y-17322376D01*
X23048617Y-17528933D01*
X23005000Y-17748212D01*
X23005000Y-17971788D01*
X23048617Y-18191067D01*
X23134176Y-18397624D01*
X23192559Y-18485000D01*
X23134176Y-18572376D01*
X23048617Y-18778933D01*
X23005000Y-18998212D01*
X23005000Y-19221788D01*
X23048617Y-19441067D01*
X23134176Y-19647624D01*
X23192559Y-19735000D01*
X23134176Y-19822376D01*
X23048617Y-20028933D01*
X23005000Y-20248212D01*
X23005000Y-20471788D01*
X23048617Y-20691067D01*
X23134176Y-20897624D01*
X23225240Y-21033911D01*
X23148412Y-21046550D01*
X23057542Y-21250826D01*
X23008269Y-21468905D01*
X23002489Y-21692406D01*
X23040423Y-21912740D01*
X23120613Y-22121440D01*
X23148412Y-22173450D01*
X23361834Y-22208561D01*
X23960395Y-21610000D01*
X23946253Y-21595858D01*
X24047110Y-21495000D01*
X24232890Y-21495000D01*
X24333748Y-21595858D01*
X24319605Y-21610000D01*
X24918166Y-22208561D01*
X25131588Y-22173450D01*
X25222458Y-21969174D01*
X25271731Y-21751095D01*
X25277511Y-21527594D01*
X25239577Y-21307260D01*
X25159387Y-21098560D01*
X25131588Y-21046550D01*
X25054760Y-21033911D01*
X25145824Y-20897624D01*
X25231383Y-20691067D01*
X25275000Y-20471788D01*
X25275000Y-20248212D01*
X25231383Y-20028933D01*
X25145824Y-19822376D01*
X25087441Y-19735000D01*
X25145824Y-19647624D01*
X25231383Y-19441067D01*
X25275000Y-19221788D01*
X25275000Y-18998212D01*
X25231383Y-18778933D01*
X25145824Y-18572376D01*
X25087441Y-18485000D01*
X25145824Y-18397624D01*
X25231383Y-18191067D01*
X25275000Y-17971788D01*
X25275000Y-17748212D01*
X25231383Y-17528933D01*
X25145824Y-17322376D01*
X25087441Y-17235000D01*
X25145824Y-17147624D01*
X25231383Y-16941067D01*
X25275000Y-16721788D01*
X25275000Y-16498212D01*
X25231383Y-16278933D01*
X25189780Y-16178494D01*
X25229502Y-16104180D01*
X25265812Y-15984482D01*
X25278072Y-15860000D01*
X25278072Y-14860000D01*
X25265812Y-14735518D01*
X25229502Y-14615820D01*
X25170537Y-14505506D01*
X25091185Y-14408815D01*
X24994494Y-14329463D01*
X24884180Y-14270498D01*
X24764482Y-14234188D01*
X24640000Y-14221928D01*
X23640000Y-14221928D01*
X23515518Y-14234188D01*
X23395820Y-14270498D01*
X23285506Y-14329463D01*
X23188815Y-14408815D01*
X23109463Y-14505506D01*
X23050498Y-14615820D01*
X23014188Y-14735518D01*
X23001928Y-14860000D01*
X22386663Y-14860000D01*
X22339734Y-14772203D01*
X22210396Y-14614604D01*
X22052797Y-14485266D01*
X21872993Y-14389159D01*
X21677895Y-14329976D01*
X21475000Y-14309993D01*
X21272106Y-14329976D01*
X21077008Y-14389159D01*
X20897203Y-14485266D01*
X20739604Y-14614604D01*
X20610266Y-14772203D01*
X20514159Y-14952007D01*
X20454976Y-15147105D01*
X20445092Y-15247462D01*
X20440000Y-15273061D01*
X20440000Y-15476939D01*
X20440001Y-15476944D01*
X20440001Y-15712006D01*
X20309907Y-15642469D01*
X20111420Y-15582259D01*
X19905000Y-15561928D01*
X18645000Y-15561928D01*
X18438580Y-15582259D01*
X18240093Y-15642469D01*
X18104777Y-15714797D01*
X18090608Y-15703169D01*
X17945716Y-15625722D01*
X17788500Y-15578031D01*
X17625000Y-15561928D01*
X17025000Y-15561928D01*
X16861500Y-15578031D01*
X16704284Y-15625722D01*
X16559392Y-15703169D01*
X16432394Y-15807394D01*
X16328169Y-15934392D01*
X16250722Y-16079284D01*
X16209553Y-16215000D01*
X15848061Y-16215000D01*
X15648102Y-16254774D01*
X15459744Y-16332795D01*
X15290226Y-16446063D01*
X15146063Y-16590226D01*
X15032795Y-16759744D01*
X14954774Y-16948102D01*
X14915000Y-17148061D01*
X14915000Y-17351939D01*
X14954774Y-17551898D01*
X15032795Y-17740256D01*
X15146063Y-17909774D01*
X15290226Y-18053937D01*
X15459744Y-18167205D01*
X15648102Y-18245226D01*
X15848061Y-18285000D01*
X16209553Y-18285000D01*
X16250722Y-18420716D01*
X16282665Y-18480477D01*
X16240245Y-18532167D01*
X16169244Y-18665000D01*
X15848061Y-18665000D01*
X15797943Y-18674969D01*
X15747105Y-18679976D01*
X15698223Y-18694804D01*
X15648102Y-18704774D01*
X15600887Y-18724331D01*
X15552007Y-18739159D01*
X15506958Y-18763238D01*
X15459744Y-18782795D01*
X15417254Y-18811186D01*
X15372203Y-18835266D01*
X15332716Y-18867672D01*
X15290226Y-18896063D01*
X15254092Y-18932197D01*
X15214604Y-18964604D01*
X15182197Y-19004092D01*
X15146063Y-19040226D01*
X15117672Y-19082716D01*
X15085266Y-19122203D01*
X15061186Y-19167254D01*
X15032795Y-19209744D01*
X15013238Y-19256958D01*
X14989159Y-19302007D01*
X14974331Y-19350887D01*
X14954774Y-19398102D01*
X14944804Y-19448223D01*
X14929976Y-19497105D01*
X14924969Y-19547943D01*
X14915000Y-19598061D01*
X14915000Y-19649162D01*
X14909993Y-19700000D01*
X1660000Y-19700000D01*
X1660000Y-4789721D01*
X2865000Y-4789721D01*
X2865000Y-5210279D01*
X2947047Y-5622756D01*
X3107988Y-6011302D01*
X3341637Y-6360983D01*
X3639017Y-6658363D01*
X3988698Y-6892012D01*
X4377244Y-7052953D01*
X4789721Y-7135000D01*
X5210279Y-7135000D01*
X5622756Y-7052953D01*
X6011302Y-6892012D01*
X6360983Y-6658363D01*
X6658363Y-6360983D01*
X6892012Y-6011302D01*
X7052953Y-5622756D01*
X7135000Y-5210279D01*
X7135000Y-4789721D01*
X29865000Y-4789721D01*
X29865000Y-5210279D01*
X29947047Y-5622756D01*
X30107988Y-6011302D01*
X30341637Y-6360983D01*
X30639017Y-6658363D01*
X30988698Y-6892012D01*
X31377244Y-7052953D01*
X31789721Y-7135000D01*
X32210279Y-7135000D01*
X32622756Y-7052953D01*
X33011302Y-6892012D01*
X33360983Y-6658363D01*
X33658363Y-6360983D01*
X33892012Y-6011302D01*
X34052953Y-5622756D01*
X34135000Y-5210279D01*
X34135000Y-4789721D01*
X34052953Y-4377244D01*
X33892012Y-3988698D01*
X33658363Y-3639017D01*
X33360983Y-3341637D01*
X33011302Y-3107988D01*
X32622756Y-2947047D01*
X32210279Y-2865000D01*
X31789721Y-2865000D01*
X31377244Y-2947047D01*
X30988698Y-3107988D01*
X30639017Y-3341637D01*
X30341637Y-3639017D01*
X30107988Y-3988698D01*
X29947047Y-4377244D01*
X29865000Y-4789721D01*
X7135000Y-4789721D01*
X7052953Y-4377244D01*
X6892012Y-3988698D01*
X6658363Y-3639017D01*
X6360983Y-3341637D01*
X6011302Y-3107988D01*
X5622756Y-2947047D01*
X5210279Y-2865000D01*
X4789721Y-2865000D01*
X4377244Y-2947047D01*
X3988698Y-3107988D01*
X3639017Y-3341637D01*
X3341637Y-3639017D01*
X3107988Y-3988698D01*
X2947047Y-4377244D01*
X2865000Y-4789721D01*
X1660000Y-4789721D01*
X1660000Y-1660000D01*
X35340000Y-1660000D01*
X35340001Y-35340000D01*
G37*
X35340001Y-35340000D02*
X1660000Y-35340000D01*
X1660000Y-31789721D01*
X2865000Y-31789721D01*
X2865000Y-32210279D01*
X2947047Y-32622756D01*
X3107988Y-33011302D01*
X3341637Y-33360983D01*
X3639017Y-33658363D01*
X3988698Y-33892012D01*
X4377244Y-34052953D01*
X4789721Y-34135000D01*
X5210279Y-34135000D01*
X5622756Y-34052953D01*
X6011302Y-33892012D01*
X6360983Y-33658363D01*
X6658363Y-33360983D01*
X6892012Y-33011302D01*
X7052953Y-32622756D01*
X7135000Y-32210279D01*
X7135000Y-31789721D01*
X29865000Y-31789721D01*
X29865000Y-32210279D01*
X29947047Y-32622756D01*
X30107988Y-33011302D01*
X30341637Y-33360983D01*
X30639017Y-33658363D01*
X30988698Y-33892012D01*
X31377244Y-34052953D01*
X31789721Y-34135000D01*
X32210279Y-34135000D01*
X32622756Y-34052953D01*
X33011302Y-33892012D01*
X33360983Y-33658363D01*
X33658363Y-33360983D01*
X33892012Y-33011302D01*
X34052953Y-32622756D01*
X34135000Y-32210279D01*
X34135000Y-31789721D01*
X34052953Y-31377244D01*
X33892012Y-30988698D01*
X33658363Y-30639017D01*
X33360983Y-30341637D01*
X33011302Y-30107988D01*
X32622756Y-29947047D01*
X32210279Y-29865000D01*
X31789721Y-29865000D01*
X31377244Y-29947047D01*
X30988698Y-30107988D01*
X30639017Y-30341637D01*
X30341637Y-30639017D01*
X30107988Y-30988698D01*
X29947047Y-31377244D01*
X29865000Y-31789721D01*
X7135000Y-31789721D01*
X7052953Y-31377244D01*
X6892012Y-30988698D01*
X6658363Y-30639017D01*
X6360983Y-30341637D01*
X6011302Y-30107988D01*
X5622756Y-29947047D01*
X5210279Y-29865000D01*
X4789721Y-29865000D01*
X4377244Y-29947047D01*
X3988698Y-30107988D01*
X3639017Y-30341637D01*
X3341637Y-30639017D01*
X3107988Y-30988698D01*
X2947047Y-31377244D01*
X2865000Y-31789721D01*
X1660000Y-31789721D01*
X1660000Y-22388166D01*
X23541439Y-22388166D01*
X23576550Y-22601588D01*
X23780826Y-22692458D01*
X23998905Y-22741731D01*
X24222406Y-22747511D01*
X24442740Y-22709577D01*
X24651440Y-22629387D01*
X24703450Y-22601588D01*
X24738561Y-22388166D01*
X24140000Y-21789605D01*
X23541439Y-22388166D01*
X1660000Y-22388166D01*
X1660000Y-19700000D01*
X14909993Y-19700000D01*
X14915000Y-19750838D01*
X14915000Y-19801939D01*
X14924969Y-19852057D01*
X14929976Y-19902895D01*
X14944804Y-19951777D01*
X14954774Y-20001898D01*
X14974331Y-20049113D01*
X14989159Y-20097993D01*
X15013238Y-20143042D01*
X15032795Y-20190256D01*
X15061186Y-20232746D01*
X15085266Y-20277797D01*
X15117672Y-20317284D01*
X15146063Y-20359774D01*
X15182196Y-20395907D01*
X15214604Y-20435396D01*
X15254092Y-20467803D01*
X15290226Y-20503937D01*
X15332716Y-20532328D01*
X15372203Y-20564734D01*
X15417254Y-20588814D01*
X15459744Y-20617205D01*
X15506958Y-20636762D01*
X15552007Y-20660841D01*
X15600887Y-20675669D01*
X15648102Y-20695226D01*
X15698223Y-20705196D01*
X15747105Y-20720024D01*
X15797943Y-20725031D01*
X15848061Y-20735000D01*
X16127330Y-20735000D01*
X16142469Y-20784907D01*
X16240245Y-20967833D01*
X16371830Y-21128170D01*
X16532167Y-21259755D01*
X16715093Y-21357531D01*
X16913580Y-21417741D01*
X17120000Y-21438072D01*
X18380000Y-21438072D01*
X18586420Y-21417741D01*
X18784907Y-21357531D01*
X18920223Y-21285203D01*
X18934392Y-21296831D01*
X19079284Y-21374278D01*
X19236500Y-21421969D01*
X19400000Y-21438072D01*
X20000000Y-21438072D01*
X20163500Y-21421969D01*
X20320716Y-21374278D01*
X20465608Y-21296831D01*
X20592606Y-21192606D01*
X20696831Y-21065608D01*
X20774278Y-20920716D01*
X20821969Y-20763500D01*
X20838072Y-20600000D01*
X20838072Y-18900000D01*
X20821969Y-18736500D01*
X20774278Y-18579284D01*
X20742335Y-18519523D01*
X20784755Y-18467833D01*
X20882481Y-18285000D01*
X21274172Y-18285000D01*
X21325000Y-18290006D01*
X21375828Y-18285000D01*
X21375838Y-18285000D01*
X21527895Y-18270024D01*
X21722993Y-18210841D01*
X21902797Y-18114734D01*
X22060396Y-17985396D01*
X22092807Y-17945903D01*
X22170903Y-17867807D01*
X22210396Y-17835396D01*
X22339734Y-17677797D01*
X22435841Y-17497993D01*
X22495024Y-17302895D01*
X22510000Y-17150838D01*
X22510000Y-17150829D01*
X22515006Y-17100001D01*
X22510000Y-17049173D01*
X22510000Y-15273061D01*
X22504908Y-15247461D01*
X22495024Y-15147106D01*
X22435841Y-14952008D01*
X22386663Y-14860000D01*
X23001928Y-14860000D01*
X23001928Y-15860000D01*
X23014188Y-15984482D01*
X23050498Y-16104180D01*
X23090220Y-16178494D01*
X23048617Y-16278933D01*
X23005000Y-16498212D01*
X23005000Y-16721788D01*
X23048617Y-16941067D01*
X23134176Y-17147624D01*
X23192559Y-17235000D01*
X23134176Y-17322376D01*
X23048617Y-17528933D01*
X23005000Y-17748212D01*
X23005000Y-17971788D01*
X23048617Y-18191067D01*
X23134176Y-18397624D01*
X23192559Y-18485000D01*
X23134176Y-18572376D01*
X23048617Y-18778933D01*
X23005000Y-18998212D01*
X23005000Y-19221788D01*
X23048617Y-19441067D01*
X23134176Y-19647624D01*
X23192559Y-19735000D01*
X23134176Y-19822376D01*
X23048617Y-20028933D01*
X23005000Y-20248212D01*
X23005000Y-20471788D01*
X23048617Y-20691067D01*
X23134176Y-20897624D01*
X23225240Y-21033911D01*
X23148412Y-21046550D01*
X23057542Y-21250826D01*
X23008269Y-21468905D01*
X23002489Y-21692406D01*
X23040423Y-21912740D01*
X23120613Y-22121440D01*
X23148412Y-22173450D01*
X23361834Y-22208561D01*
X23960395Y-21610000D01*
X23946253Y-21595858D01*
X24047110Y-21495000D01*
X24232890Y-21495000D01*
X24333748Y-21595858D01*
X24319605Y-21610000D01*
X24918166Y-22208561D01*
X25131588Y-22173450D01*
X25222458Y-21969174D01*
X25271731Y-21751095D01*
X25277511Y-21527594D01*
X25239577Y-21307260D01*
X25159387Y-21098560D01*
X25131588Y-21046550D01*
X25054760Y-21033911D01*
X25145824Y-20897624D01*
X25231383Y-20691067D01*
X25275000Y-20471788D01*
X25275000Y-20248212D01*
X25231383Y-20028933D01*
X25145824Y-19822376D01*
X25087441Y-19735000D01*
X25145824Y-19647624D01*
X25231383Y-19441067D01*
X25275000Y-19221788D01*
X25275000Y-18998212D01*
X25231383Y-18778933D01*
X25145824Y-18572376D01*
X25087441Y-18485000D01*
X25145824Y-18397624D01*
X25231383Y-18191067D01*
X25275000Y-17971788D01*
X25275000Y-17748212D01*
X25231383Y-17528933D01*
X25145824Y-17322376D01*
X25087441Y-17235000D01*
X25145824Y-17147624D01*
X25231383Y-16941067D01*
X25275000Y-16721788D01*
X25275000Y-16498212D01*
X25231383Y-16278933D01*
X25189780Y-16178494D01*
X25229502Y-16104180D01*
X25265812Y-15984482D01*
X25278072Y-15860000D01*
X25278072Y-14860000D01*
X25265812Y-14735518D01*
X25229502Y-14615820D01*
X25170537Y-14505506D01*
X25091185Y-14408815D01*
X24994494Y-14329463D01*
X24884180Y-14270498D01*
X24764482Y-14234188D01*
X24640000Y-14221928D01*
X23640000Y-14221928D01*
X23515518Y-14234188D01*
X23395820Y-14270498D01*
X23285506Y-14329463D01*
X23188815Y-14408815D01*
X23109463Y-14505506D01*
X23050498Y-14615820D01*
X23014188Y-14735518D01*
X23001928Y-14860000D01*
X22386663Y-14860000D01*
X22339734Y-14772203D01*
X22210396Y-14614604D01*
X22052797Y-14485266D01*
X21872993Y-14389159D01*
X21677895Y-14329976D01*
X21475000Y-14309993D01*
X21272106Y-14329976D01*
X21077008Y-14389159D01*
X20897203Y-14485266D01*
X20739604Y-14614604D01*
X20610266Y-14772203D01*
X20514159Y-14952007D01*
X20454976Y-15147105D01*
X20445092Y-15247462D01*
X20440000Y-15273061D01*
X20440000Y-15476939D01*
X20440001Y-15476944D01*
X20440001Y-15712006D01*
X20309907Y-15642469D01*
X20111420Y-15582259D01*
X19905000Y-15561928D01*
X18645000Y-15561928D01*
X18438580Y-15582259D01*
X18240093Y-15642469D01*
X18104777Y-15714797D01*
X18090608Y-15703169D01*
X17945716Y-15625722D01*
X17788500Y-15578031D01*
X17625000Y-15561928D01*
X17025000Y-15561928D01*
X16861500Y-15578031D01*
X16704284Y-15625722D01*
X16559392Y-15703169D01*
X16432394Y-15807394D01*
X16328169Y-15934392D01*
X16250722Y-16079284D01*
X16209553Y-16215000D01*
X15848061Y-16215000D01*
X15648102Y-16254774D01*
X15459744Y-16332795D01*
X15290226Y-16446063D01*
X15146063Y-16590226D01*
X15032795Y-16759744D01*
X14954774Y-16948102D01*
X14915000Y-17148061D01*
X14915000Y-17351939D01*
X14954774Y-17551898D01*
X15032795Y-17740256D01*
X15146063Y-17909774D01*
X15290226Y-18053937D01*
X15459744Y-18167205D01*
X15648102Y-18245226D01*
X15848061Y-18285000D01*
X16209553Y-18285000D01*
X16250722Y-18420716D01*
X16282665Y-18480477D01*
X16240245Y-18532167D01*
X16169244Y-18665000D01*
X15848061Y-18665000D01*
X15797943Y-18674969D01*
X15747105Y-18679976D01*
X15698223Y-18694804D01*
X15648102Y-18704774D01*
X15600887Y-18724331D01*
X15552007Y-18739159D01*
X15506958Y-18763238D01*
X15459744Y-18782795D01*
X15417254Y-18811186D01*
X15372203Y-18835266D01*
X15332716Y-18867672D01*
X15290226Y-18896063D01*
X15254092Y-18932197D01*
X15214604Y-18964604D01*
X15182197Y-19004092D01*
X15146063Y-19040226D01*
X15117672Y-19082716D01*
X15085266Y-19122203D01*
X15061186Y-19167254D01*
X15032795Y-19209744D01*
X15013238Y-19256958D01*
X14989159Y-19302007D01*
X14974331Y-19350887D01*
X14954774Y-19398102D01*
X14944804Y-19448223D01*
X14929976Y-19497105D01*
X14924969Y-19547943D01*
X14915000Y-19598061D01*
X14915000Y-19649162D01*
X14909993Y-19700000D01*
X1660000Y-19700000D01*
X1660000Y-4789721D01*
X2865000Y-4789721D01*
X2865000Y-5210279D01*
X2947047Y-5622756D01*
X3107988Y-6011302D01*
X3341637Y-6360983D01*
X3639017Y-6658363D01*
X3988698Y-6892012D01*
X4377244Y-7052953D01*
X4789721Y-7135000D01*
X5210279Y-7135000D01*
X5622756Y-7052953D01*
X6011302Y-6892012D01*
X6360983Y-6658363D01*
X6658363Y-6360983D01*
X6892012Y-6011302D01*
X7052953Y-5622756D01*
X7135000Y-5210279D01*
X7135000Y-4789721D01*
X29865000Y-4789721D01*
X29865000Y-5210279D01*
X29947047Y-5622756D01*
X30107988Y-6011302D01*
X30341637Y-6360983D01*
X30639017Y-6658363D01*
X30988698Y-6892012D01*
X31377244Y-7052953D01*
X31789721Y-7135000D01*
X32210279Y-7135000D01*
X32622756Y-7052953D01*
X33011302Y-6892012D01*
X33360983Y-6658363D01*
X33658363Y-6360983D01*
X33892012Y-6011302D01*
X34052953Y-5622756D01*
X34135000Y-5210279D01*
X34135000Y-4789721D01*
X34052953Y-4377244D01*
X33892012Y-3988698D01*
X33658363Y-3639017D01*
X33360983Y-3341637D01*
X33011302Y-3107988D01*
X32622756Y-2947047D01*
X32210279Y-2865000D01*
X31789721Y-2865000D01*
X31377244Y-2947047D01*
X30988698Y-3107988D01*
X30639017Y-3341637D01*
X30341637Y-3639017D01*
X30107988Y-3988698D01*
X29947047Y-4377244D01*
X29865000Y-4789721D01*
X7135000Y-4789721D01*
X7052953Y-4377244D01*
X6892012Y-3988698D01*
X6658363Y-3639017D01*
X6360983Y-3341637D01*
X6011302Y-3107988D01*
X5622756Y-2947047D01*
X5210279Y-2865000D01*
X4789721Y-2865000D01*
X4377244Y-2947047D01*
X3988698Y-3107988D01*
X3639017Y-3341637D01*
X3341637Y-3639017D01*
X3107988Y-3988698D01*
X2947047Y-4377244D01*
X2865000Y-4789721D01*
X1660000Y-4789721D01*
X1660000Y-1660000D01*
X35340000Y-1660000D01*
X35340001Y-35340000D01*
%TD*%
M02*
