%TF.GenerationSoftware,KiCad,Pcbnew,(5.1.6)-1*%
%TF.CreationDate,2021-03-09T14:24:23+01:00*%
%TF.ProjectId,m32_LedSignal,6d33325f-4c65-4645-9369-676e616c2e6b,rev?*%
%TF.SameCoordinates,Original*%
%TF.FileFunction,Copper,L2,Bot*%
%TF.FilePolarity,Positive*%
%FSLAX46Y46*%
G04 Gerber Fmt 4.6, Leading zero omitted, Abs format (unit mm)*
G04 Created by KiCad (PCBNEW (5.1.6)-1) date 2021-03-09 14:24:23*
%MOMM*%
%LPD*%
G01*
G04 APERTURE LIST*
%TA.AperFunction,ComponentPad*%
%ADD10R,1.000000X1.000000*%
%TD*%
%TA.AperFunction,ComponentPad*%
%ADD11C,1.000000*%
%TD*%
%TA.AperFunction,SMDPad,CuDef*%
%ADD12R,0.800000X0.900000*%
%TD*%
%TA.AperFunction,ViaPad*%
%ADD13C,0.800000*%
%TD*%
%TA.AperFunction,Conductor*%
%ADD14C,0.800000*%
%TD*%
%TA.AperFunction,Conductor*%
%ADD15C,0.254000*%
%TD*%
G04 APERTURE END LIST*
D10*
%TO.P,J1,1*%
%TO.N,+5V*%
X24140000Y-15360000D03*
D11*
%TO.P,J1,2*%
%TO.N,/RED*%
X24140000Y-16610000D03*
%TO.P,J1,3*%
%TO.N,/GREEN*%
X24140000Y-17860000D03*
%TO.P,J1,4*%
%TO.N,Net-(J1-Pad4)*%
X24140000Y-19110000D03*
%TO.P,J1,5*%
%TO.N,Net-(J1-Pad5)*%
X24140000Y-20360000D03*
%TO.P,J1,6*%
%TO.N,GND*%
X24140000Y-21610000D03*
%TD*%
D12*
%TO.P,Q2,3*%
%TO.N,Net-(Q2-Pad3)*%
X18500000Y-22500000D03*
%TO.P,Q2,2*%
%TO.N,GND*%
X17550000Y-24500000D03*
%TO.P,Q2,1*%
%TO.N,Net-(Q2-Pad1)*%
X19450000Y-24500000D03*
%TD*%
%TO.P,R5,2*%
%TO.N,Net-(Q2-Pad1)*%
%TA.AperFunction,SMDPad,CuDef*%
G36*
G01*
X22225000Y-23875000D02*
X22225000Y-25125000D01*
G75*
G02*
X21975000Y-25375000I-250000J0D01*
G01*
X21225000Y-25375000D01*
G75*
G02*
X20975000Y-25125000I0J250000D01*
G01*
X20975000Y-23875000D01*
G75*
G02*
X21225000Y-23625000I250000J0D01*
G01*
X21975000Y-23625000D01*
G75*
G02*
X22225000Y-23875000I0J-250000D01*
G01*
G37*
%TD.AperFunction*%
%TO.P,R5,1*%
%TO.N,/GREEN*%
%TA.AperFunction,SMDPad,CuDef*%
G36*
G01*
X25025000Y-23875000D02*
X25025000Y-25125000D01*
G75*
G02*
X24775000Y-25375000I-250000J0D01*
G01*
X24025000Y-25375000D01*
G75*
G02*
X23775000Y-25125000I0J250000D01*
G01*
X23775000Y-23875000D01*
G75*
G02*
X24025000Y-23625000I250000J0D01*
G01*
X24775000Y-23625000D01*
G75*
G02*
X25025000Y-23875000I0J-250000D01*
G01*
G37*
%TD.AperFunction*%
%TD*%
%TO.P,R4,2*%
%TO.N,Net-(Q1-Pad1)*%
%TA.AperFunction,SMDPad,CuDef*%
G36*
G01*
X22225000Y-11825000D02*
X22225000Y-13075000D01*
G75*
G02*
X21975000Y-13325000I-250000J0D01*
G01*
X21225000Y-13325000D01*
G75*
G02*
X20975000Y-13075000I0J250000D01*
G01*
X20975000Y-11825000D01*
G75*
G02*
X21225000Y-11575000I250000J0D01*
G01*
X21975000Y-11575000D01*
G75*
G02*
X22225000Y-11825000I0J-250000D01*
G01*
G37*
%TD.AperFunction*%
%TO.P,R4,1*%
%TO.N,/RED*%
%TA.AperFunction,SMDPad,CuDef*%
G36*
G01*
X25025000Y-11825000D02*
X25025000Y-13075000D01*
G75*
G02*
X24775000Y-13325000I-250000J0D01*
G01*
X24025000Y-13325000D01*
G75*
G02*
X23775000Y-13075000I0J250000D01*
G01*
X23775000Y-11825000D01*
G75*
G02*
X24025000Y-11575000I250000J0D01*
G01*
X24775000Y-11575000D01*
G75*
G02*
X25025000Y-11825000I0J-250000D01*
G01*
G37*
%TD.AperFunction*%
%TD*%
%TO.P,R2,2*%
%TO.N,Net-(D2-Pad1)*%
%TA.AperFunction,SMDPad,CuDef*%
G36*
G01*
X14875000Y-20325000D02*
X13625000Y-20325000D01*
G75*
G02*
X13375000Y-20075000I0J250000D01*
G01*
X13375000Y-19325000D01*
G75*
G02*
X13625000Y-19075000I250000J0D01*
G01*
X14875000Y-19075000D01*
G75*
G02*
X15125000Y-19325000I0J-250000D01*
G01*
X15125000Y-20075000D01*
G75*
G02*
X14875000Y-20325000I-250000J0D01*
G01*
G37*
%TD.AperFunction*%
%TO.P,R2,1*%
%TO.N,Net-(Q2-Pad3)*%
%TA.AperFunction,SMDPad,CuDef*%
G36*
G01*
X14875000Y-23125000D02*
X13625000Y-23125000D01*
G75*
G02*
X13375000Y-22875000I0J250000D01*
G01*
X13375000Y-22125000D01*
G75*
G02*
X13625000Y-21875000I250000J0D01*
G01*
X14875000Y-21875000D01*
G75*
G02*
X15125000Y-22125000I0J-250000D01*
G01*
X15125000Y-22875000D01*
G75*
G02*
X14875000Y-23125000I-250000J0D01*
G01*
G37*
%TD.AperFunction*%
%TD*%
%TO.P,R1,2*%
%TO.N,Net-(D1-Pad1)*%
%TA.AperFunction,SMDPad,CuDef*%
G36*
G01*
X13625000Y-16625000D02*
X14875000Y-16625000D01*
G75*
G02*
X15125000Y-16875000I0J-250000D01*
G01*
X15125000Y-17625000D01*
G75*
G02*
X14875000Y-17875000I-250000J0D01*
G01*
X13625000Y-17875000D01*
G75*
G02*
X13375000Y-17625000I0J250000D01*
G01*
X13375000Y-16875000D01*
G75*
G02*
X13625000Y-16625000I250000J0D01*
G01*
G37*
%TD.AperFunction*%
%TO.P,R1,1*%
%TO.N,Net-(Q1-Pad3)*%
%TA.AperFunction,SMDPad,CuDef*%
G36*
G01*
X13625000Y-13825000D02*
X14875000Y-13825000D01*
G75*
G02*
X15125000Y-14075000I0J-250000D01*
G01*
X15125000Y-14825000D01*
G75*
G02*
X14875000Y-15075000I-250000J0D01*
G01*
X13625000Y-15075000D01*
G75*
G02*
X13375000Y-14825000I0J250000D01*
G01*
X13375000Y-14075000D01*
G75*
G02*
X13625000Y-13825000I250000J0D01*
G01*
G37*
%TD.AperFunction*%
%TD*%
%TO.P,Q1,3*%
%TO.N,Net-(Q1-Pad3)*%
X18500000Y-14450000D03*
%TO.P,Q1,2*%
%TO.N,GND*%
X19450000Y-12450000D03*
%TO.P,Q1,1*%
%TO.N,Net-(Q1-Pad1)*%
X17550000Y-12450000D03*
%TD*%
D13*
%TO.N,+5V*%
X21475000Y-15375000D03*
%TO.N,GND*%
X16200000Y-26200000D03*
X21625000Y-21775000D03*
%TO.N,Net-(D1-Pad1)*%
X15950000Y-17250000D03*
%TO.N,Net-(D2-Pad1)*%
X15950000Y-19700000D03*
%TD*%
D14*
%TO.N,GND*%
X24130000Y-21600000D02*
X24140000Y-21610000D01*
%TO.N,+5V*%
X21490000Y-15360000D02*
X21475000Y-15375000D01*
X24140000Y-15360000D02*
X21490000Y-15360000D01*
%TO.N,GND*%
X24140000Y-21610000D02*
X23500000Y-22250000D01*
%TO.N,Net-(J1-Pad5)*%
X24150000Y-20350000D02*
X24140000Y-20360000D01*
%TO.N,/GREEN*%
X24400000Y-24500000D02*
X24950000Y-24500000D01*
X24950000Y-24500000D02*
X25850000Y-23600000D01*
X24847106Y-17860000D02*
X24140000Y-17860000D01*
X25850000Y-18862894D02*
X24847106Y-17860000D01*
X25850000Y-23600000D02*
X25850000Y-18862894D01*
%TO.N,/RED*%
X24400000Y-12450000D02*
X25100000Y-12450000D01*
X25100000Y-12450000D02*
X25950000Y-13300000D01*
X25950000Y-15507106D02*
X24847106Y-16610000D01*
X24847106Y-16610000D02*
X24140000Y-16610000D01*
X25950000Y-13300000D02*
X25950000Y-15507106D01*
%TO.N,Net-(Q1-Pad3)*%
X18500000Y-14450000D02*
X14250000Y-14450000D01*
%TO.N,Net-(Q1-Pad1)*%
X17550000Y-12450000D02*
X17550000Y-11550000D01*
X17550000Y-11550000D02*
X18300000Y-10800000D01*
X18300000Y-10800000D02*
X21600000Y-10800000D01*
X21600000Y-10800000D02*
X21600000Y-12450000D01*
%TO.N,Net-(Q2-Pad3)*%
X18500000Y-22500000D02*
X14250000Y-22500000D01*
%TO.N,Net-(Q2-Pad1)*%
X21600000Y-24500000D02*
X19450000Y-24500000D01*
%TO.N,Net-(D1-Pad1)*%
X15950000Y-17250000D02*
X14250000Y-17250000D01*
%TO.N,Net-(D2-Pad1)*%
X14250000Y-19700000D02*
X15950000Y-19700000D01*
%TD*%
D15*
%TO.N,GND*%
G36*
X35340001Y-35340000D02*
G01*
X1660000Y-35340000D01*
X1660000Y-31789721D01*
X2865000Y-31789721D01*
X2865000Y-32210279D01*
X2947047Y-32622756D01*
X3107988Y-33011302D01*
X3341637Y-33360983D01*
X3639017Y-33658363D01*
X3988698Y-33892012D01*
X4377244Y-34052953D01*
X4789721Y-34135000D01*
X5210279Y-34135000D01*
X5622756Y-34052953D01*
X6011302Y-33892012D01*
X6360983Y-33658363D01*
X6658363Y-33360983D01*
X6892012Y-33011302D01*
X7052953Y-32622756D01*
X7135000Y-32210279D01*
X7135000Y-31789721D01*
X29865000Y-31789721D01*
X29865000Y-32210279D01*
X29947047Y-32622756D01*
X30107988Y-33011302D01*
X30341637Y-33360983D01*
X30639017Y-33658363D01*
X30988698Y-33892012D01*
X31377244Y-34052953D01*
X31789721Y-34135000D01*
X32210279Y-34135000D01*
X32622756Y-34052953D01*
X33011302Y-33892012D01*
X33360983Y-33658363D01*
X33658363Y-33360983D01*
X33892012Y-33011302D01*
X34052953Y-32622756D01*
X34135000Y-32210279D01*
X34135000Y-31789721D01*
X34052953Y-31377244D01*
X33892012Y-30988698D01*
X33658363Y-30639017D01*
X33360983Y-30341637D01*
X33011302Y-30107988D01*
X32622756Y-29947047D01*
X32210279Y-29865000D01*
X31789721Y-29865000D01*
X31377244Y-29947047D01*
X30988698Y-30107988D01*
X30639017Y-30341637D01*
X30341637Y-30639017D01*
X30107988Y-30988698D01*
X29947047Y-31377244D01*
X29865000Y-31789721D01*
X7135000Y-31789721D01*
X7052953Y-31377244D01*
X6892012Y-30988698D01*
X6658363Y-30639017D01*
X6360983Y-30341637D01*
X6011302Y-30107988D01*
X5622756Y-29947047D01*
X5210279Y-29865000D01*
X4789721Y-29865000D01*
X4377244Y-29947047D01*
X3988698Y-30107988D01*
X3639017Y-30341637D01*
X3341637Y-30639017D01*
X3107988Y-30988698D01*
X2947047Y-31377244D01*
X2865000Y-31789721D01*
X1660000Y-31789721D01*
X1660000Y-24950000D01*
X16511928Y-24950000D01*
X16524188Y-25074482D01*
X16560498Y-25194180D01*
X16619463Y-25304494D01*
X16698815Y-25401185D01*
X16795506Y-25480537D01*
X16905820Y-25539502D01*
X17025518Y-25575812D01*
X17150000Y-25588072D01*
X17264250Y-25585000D01*
X17423000Y-25426250D01*
X17423000Y-24627000D01*
X16673750Y-24627000D01*
X16515000Y-24785750D01*
X16511928Y-24950000D01*
X1660000Y-24950000D01*
X1660000Y-22125000D01*
X12736928Y-22125000D01*
X12736928Y-22875000D01*
X12753992Y-23048254D01*
X12804528Y-23214850D01*
X12886595Y-23368386D01*
X12997038Y-23502962D01*
X13131614Y-23613405D01*
X13285150Y-23695472D01*
X13451746Y-23746008D01*
X13625000Y-23763072D01*
X14875000Y-23763072D01*
X15048254Y-23746008D01*
X15214850Y-23695472D01*
X15368386Y-23613405D01*
X15463923Y-23535000D01*
X16776574Y-23535000D01*
X16698815Y-23598815D01*
X16619463Y-23695506D01*
X16560498Y-23805820D01*
X16524188Y-23925518D01*
X16511928Y-24050000D01*
X16515000Y-24214250D01*
X16673750Y-24373000D01*
X17423000Y-24373000D01*
X17423000Y-24353000D01*
X17677000Y-24353000D01*
X17677000Y-24373000D01*
X17697000Y-24373000D01*
X17697000Y-24627000D01*
X17677000Y-24627000D01*
X17677000Y-25426250D01*
X17835750Y-25585000D01*
X17950000Y-25588072D01*
X18074482Y-25575812D01*
X18194180Y-25539502D01*
X18304494Y-25480537D01*
X18401185Y-25401185D01*
X18480537Y-25304494D01*
X18500000Y-25268082D01*
X18519463Y-25304494D01*
X18598815Y-25401185D01*
X18695506Y-25480537D01*
X18805820Y-25539502D01*
X18925518Y-25575812D01*
X19050000Y-25588072D01*
X19850000Y-25588072D01*
X19974482Y-25575812D01*
X20094180Y-25539502D01*
X20102603Y-25535000D01*
X20442024Y-25535000D01*
X20486595Y-25618386D01*
X20597038Y-25752962D01*
X20731614Y-25863405D01*
X20885150Y-25945472D01*
X21051746Y-25996008D01*
X21225000Y-26013072D01*
X21975000Y-26013072D01*
X22148254Y-25996008D01*
X22314850Y-25945472D01*
X22468386Y-25863405D01*
X22602962Y-25752962D01*
X22713405Y-25618386D01*
X22795472Y-25464850D01*
X22846008Y-25298254D01*
X22863072Y-25125000D01*
X22863072Y-23875000D01*
X22846008Y-23701746D01*
X22795472Y-23535150D01*
X22713405Y-23381614D01*
X22602962Y-23247038D01*
X22468386Y-23136595D01*
X22314850Y-23054528D01*
X22148254Y-23003992D01*
X21975000Y-22986928D01*
X21225000Y-22986928D01*
X21051746Y-23003992D01*
X20885150Y-23054528D01*
X20731614Y-23136595D01*
X20597038Y-23247038D01*
X20486595Y-23381614D01*
X20442024Y-23465000D01*
X20102603Y-23465000D01*
X20094180Y-23460498D01*
X19974482Y-23424188D01*
X19850000Y-23411928D01*
X19338095Y-23411928D01*
X19351185Y-23401185D01*
X19430537Y-23304494D01*
X19489502Y-23194180D01*
X19525812Y-23074482D01*
X19538072Y-22950000D01*
X19538072Y-22519647D01*
X19540007Y-22500000D01*
X19538072Y-22480353D01*
X19538072Y-22050000D01*
X19525812Y-21925518D01*
X19489502Y-21805820D01*
X19430537Y-21695506D01*
X19351185Y-21598815D01*
X19254494Y-21519463D01*
X19144180Y-21460498D01*
X19024482Y-21424188D01*
X18900000Y-21411928D01*
X18100000Y-21411928D01*
X17975518Y-21424188D01*
X17855820Y-21460498D01*
X17847397Y-21465000D01*
X15463923Y-21465000D01*
X15368386Y-21386595D01*
X15214850Y-21304528D01*
X15048254Y-21253992D01*
X14875000Y-21236928D01*
X13625000Y-21236928D01*
X13451746Y-21253992D01*
X13285150Y-21304528D01*
X13131614Y-21386595D01*
X12997038Y-21497038D01*
X12886595Y-21631614D01*
X12804528Y-21785150D01*
X12753992Y-21951746D01*
X12736928Y-22125000D01*
X1660000Y-22125000D01*
X1660000Y-16875000D01*
X12736928Y-16875000D01*
X12736928Y-17625000D01*
X12753992Y-17798254D01*
X12804528Y-17964850D01*
X12886595Y-18118386D01*
X12997038Y-18252962D01*
X13131614Y-18363405D01*
X13285150Y-18445472D01*
X13382491Y-18475000D01*
X13285150Y-18504528D01*
X13131614Y-18586595D01*
X12997038Y-18697038D01*
X12886595Y-18831614D01*
X12804528Y-18985150D01*
X12753992Y-19151746D01*
X12736928Y-19325000D01*
X12736928Y-20075000D01*
X12753992Y-20248254D01*
X12804528Y-20414850D01*
X12886595Y-20568386D01*
X12997038Y-20702962D01*
X13131614Y-20813405D01*
X13285150Y-20895472D01*
X13451746Y-20946008D01*
X13625000Y-20963072D01*
X14875000Y-20963072D01*
X15048254Y-20946008D01*
X15214850Y-20895472D01*
X15368386Y-20813405D01*
X15463923Y-20735000D01*
X16051939Y-20735000D01*
X16102057Y-20725031D01*
X16152895Y-20720024D01*
X16201777Y-20705196D01*
X16251898Y-20695226D01*
X16299113Y-20675669D01*
X16347993Y-20660841D01*
X16393042Y-20636762D01*
X16440256Y-20617205D01*
X16482746Y-20588814D01*
X16527797Y-20564734D01*
X16567284Y-20532328D01*
X16609774Y-20503937D01*
X16645908Y-20467803D01*
X16685396Y-20435396D01*
X16717803Y-20395908D01*
X16753937Y-20359774D01*
X16782328Y-20317284D01*
X16814734Y-20277797D01*
X16838814Y-20232746D01*
X16867205Y-20190256D01*
X16886762Y-20143042D01*
X16910841Y-20097993D01*
X16925669Y-20049113D01*
X16945226Y-20001898D01*
X16955196Y-19951777D01*
X16970024Y-19902895D01*
X16975031Y-19852057D01*
X16985000Y-19801939D01*
X16985000Y-19750838D01*
X16990007Y-19700000D01*
X16985000Y-19649162D01*
X16985000Y-19598061D01*
X16975031Y-19547943D01*
X16970024Y-19497105D01*
X16955196Y-19448223D01*
X16945226Y-19398102D01*
X16925669Y-19350887D01*
X16910841Y-19302007D01*
X16886762Y-19256958D01*
X16867205Y-19209744D01*
X16838814Y-19167254D01*
X16814734Y-19122203D01*
X16782328Y-19082716D01*
X16753937Y-19040226D01*
X16717803Y-19004092D01*
X16685396Y-18964604D01*
X16645908Y-18932197D01*
X16609774Y-18896063D01*
X16567284Y-18867672D01*
X16527797Y-18835266D01*
X16482746Y-18811186D01*
X16440256Y-18782795D01*
X16393042Y-18763238D01*
X16347993Y-18739159D01*
X16299113Y-18724331D01*
X16251898Y-18704774D01*
X16201777Y-18694804D01*
X16152895Y-18679976D01*
X16102057Y-18674969D01*
X16051939Y-18665000D01*
X15463923Y-18665000D01*
X15368386Y-18586595D01*
X15214850Y-18504528D01*
X15117509Y-18475000D01*
X15214850Y-18445472D01*
X15368386Y-18363405D01*
X15463923Y-18285000D01*
X16051939Y-18285000D01*
X16102057Y-18275031D01*
X16152895Y-18270024D01*
X16201777Y-18255196D01*
X16251898Y-18245226D01*
X16299113Y-18225669D01*
X16347993Y-18210841D01*
X16393042Y-18186762D01*
X16440256Y-18167205D01*
X16482746Y-18138814D01*
X16527797Y-18114734D01*
X16567284Y-18082328D01*
X16609774Y-18053937D01*
X16645908Y-18017803D01*
X16685396Y-17985396D01*
X16717803Y-17945908D01*
X16753937Y-17909774D01*
X16782328Y-17867284D01*
X16814734Y-17827797D01*
X16838814Y-17782746D01*
X16867205Y-17740256D01*
X16886762Y-17693042D01*
X16910841Y-17647993D01*
X16925669Y-17599113D01*
X16945226Y-17551898D01*
X16955196Y-17501777D01*
X16970024Y-17452895D01*
X16975031Y-17402057D01*
X16985000Y-17351939D01*
X16985000Y-17300838D01*
X16990007Y-17250000D01*
X16985000Y-17199162D01*
X16985000Y-17148061D01*
X16975031Y-17097943D01*
X16970024Y-17047105D01*
X16955196Y-16998223D01*
X16945226Y-16948102D01*
X16925669Y-16900887D01*
X16910841Y-16852007D01*
X16886762Y-16806958D01*
X16867205Y-16759744D01*
X16838814Y-16717254D01*
X16814734Y-16672203D01*
X16782328Y-16632716D01*
X16753937Y-16590226D01*
X16717803Y-16554092D01*
X16685396Y-16514604D01*
X16645908Y-16482197D01*
X16609774Y-16446063D01*
X16567284Y-16417672D01*
X16527797Y-16385266D01*
X16482746Y-16361186D01*
X16440256Y-16332795D01*
X16393042Y-16313238D01*
X16347993Y-16289159D01*
X16299113Y-16274331D01*
X16251898Y-16254774D01*
X16201777Y-16244804D01*
X16152895Y-16229976D01*
X16102057Y-16224969D01*
X16051939Y-16215000D01*
X15463923Y-16215000D01*
X15368386Y-16136595D01*
X15214850Y-16054528D01*
X15048254Y-16003992D01*
X14875000Y-15986928D01*
X13625000Y-15986928D01*
X13451746Y-16003992D01*
X13285150Y-16054528D01*
X13131614Y-16136595D01*
X12997038Y-16247038D01*
X12886595Y-16381614D01*
X12804528Y-16535150D01*
X12753992Y-16701746D01*
X12736928Y-16875000D01*
X1660000Y-16875000D01*
X1660000Y-14075000D01*
X12736928Y-14075000D01*
X12736928Y-14825000D01*
X12753992Y-14998254D01*
X12804528Y-15164850D01*
X12886595Y-15318386D01*
X12997038Y-15452962D01*
X13131614Y-15563405D01*
X13285150Y-15645472D01*
X13451746Y-15696008D01*
X13625000Y-15713072D01*
X14875000Y-15713072D01*
X15048254Y-15696008D01*
X15214850Y-15645472D01*
X15368386Y-15563405D01*
X15463923Y-15485000D01*
X17847397Y-15485000D01*
X17855820Y-15489502D01*
X17975518Y-15525812D01*
X18100000Y-15538072D01*
X18900000Y-15538072D01*
X19024482Y-15525812D01*
X19144180Y-15489502D01*
X19254494Y-15430537D01*
X19322166Y-15375000D01*
X20434994Y-15375000D01*
X20440000Y-15425828D01*
X20440000Y-15476939D01*
X20449971Y-15527067D01*
X20454977Y-15577895D01*
X20469803Y-15626768D01*
X20479774Y-15676898D01*
X20499335Y-15724122D01*
X20514160Y-15772993D01*
X20538236Y-15818036D01*
X20557795Y-15865256D01*
X20586187Y-15907748D01*
X20610266Y-15952797D01*
X20642672Y-15992284D01*
X20671063Y-16034774D01*
X20707197Y-16070908D01*
X20739604Y-16110396D01*
X20779092Y-16142803D01*
X20815226Y-16178937D01*
X20857716Y-16207328D01*
X20897203Y-16239734D01*
X20942252Y-16263813D01*
X20984744Y-16292205D01*
X21031964Y-16311764D01*
X21077007Y-16335840D01*
X21125878Y-16350665D01*
X21173102Y-16370226D01*
X21223232Y-16380197D01*
X21272105Y-16395023D01*
X21322933Y-16400029D01*
X21373061Y-16410000D01*
X21424172Y-16410000D01*
X21475000Y-16415006D01*
X21525828Y-16410000D01*
X21576939Y-16410000D01*
X21627067Y-16400029D01*
X21677895Y-16395023D01*
X21677971Y-16395000D01*
X23025530Y-16395000D01*
X23005000Y-16498212D01*
X23005000Y-16721788D01*
X23048617Y-16941067D01*
X23134176Y-17147624D01*
X23192559Y-17235000D01*
X23134176Y-17322376D01*
X23048617Y-17528933D01*
X23005000Y-17748212D01*
X23005000Y-17971788D01*
X23048617Y-18191067D01*
X23134176Y-18397624D01*
X23192559Y-18485000D01*
X23134176Y-18572376D01*
X23048617Y-18778933D01*
X23005000Y-18998212D01*
X23005000Y-19221788D01*
X23048617Y-19441067D01*
X23134176Y-19647624D01*
X23192559Y-19735000D01*
X23134176Y-19822376D01*
X23048617Y-20028933D01*
X23005000Y-20248212D01*
X23005000Y-20471788D01*
X23048617Y-20691067D01*
X23134176Y-20897624D01*
X23225240Y-21033911D01*
X23148412Y-21046550D01*
X23057542Y-21250826D01*
X23008269Y-21468905D01*
X23002489Y-21692406D01*
X23040423Y-21912740D01*
X23120613Y-22121440D01*
X23148412Y-22173450D01*
X23361834Y-22208561D01*
X23960395Y-21610000D01*
X23946253Y-21595858D01*
X24047110Y-21495000D01*
X24232890Y-21495000D01*
X24333748Y-21595858D01*
X24319605Y-21610000D01*
X24333748Y-21624143D01*
X24154143Y-21803748D01*
X24140000Y-21789605D01*
X23541439Y-22388166D01*
X23576550Y-22601588D01*
X23780826Y-22692458D01*
X23998905Y-22741731D01*
X24222406Y-22747511D01*
X24442740Y-22709577D01*
X24651440Y-22629387D01*
X24703450Y-22601588D01*
X24738561Y-22388169D01*
X24815000Y-22464608D01*
X24815000Y-22990868D01*
X24775000Y-22986928D01*
X24025000Y-22986928D01*
X23851746Y-23003992D01*
X23685150Y-23054528D01*
X23531614Y-23136595D01*
X23397038Y-23247038D01*
X23286595Y-23381614D01*
X23204528Y-23535150D01*
X23153992Y-23701746D01*
X23136928Y-23875000D01*
X23136928Y-25125000D01*
X23153992Y-25298254D01*
X23204528Y-25464850D01*
X23286595Y-25618386D01*
X23397038Y-25752962D01*
X23531614Y-25863405D01*
X23685150Y-25945472D01*
X23851746Y-25996008D01*
X24025000Y-26013072D01*
X24775000Y-26013072D01*
X24948254Y-25996008D01*
X25114850Y-25945472D01*
X25268386Y-25863405D01*
X25402962Y-25752962D01*
X25513405Y-25618386D01*
X25595472Y-25464850D01*
X25646008Y-25298254D01*
X25649280Y-25265036D01*
X25685396Y-25235396D01*
X25717807Y-25195903D01*
X26545908Y-24367803D01*
X26585396Y-24335396D01*
X26684818Y-24214250D01*
X26714734Y-24177798D01*
X26810840Y-23997994D01*
X26810841Y-23997993D01*
X26870024Y-23802895D01*
X26885000Y-23650838D01*
X26885000Y-23650829D01*
X26890006Y-23600001D01*
X26885000Y-23549173D01*
X26885000Y-18913721D01*
X26890006Y-18862893D01*
X26885000Y-18812065D01*
X26885000Y-18812056D01*
X26870024Y-18659999D01*
X26810841Y-18464901D01*
X26756590Y-18363405D01*
X26714734Y-18285096D01*
X26617803Y-18166986D01*
X26585396Y-18127498D01*
X26545908Y-18095091D01*
X25685816Y-17235000D01*
X26645908Y-16274909D01*
X26685396Y-16242502D01*
X26717803Y-16203014D01*
X26814734Y-16084904D01*
X26885346Y-15952797D01*
X26910841Y-15905099D01*
X26970024Y-15710001D01*
X26985000Y-15557944D01*
X26985000Y-15557941D01*
X26990007Y-15507106D01*
X26985000Y-15456271D01*
X26985000Y-13350835D01*
X26990007Y-13300000D01*
X26985000Y-13249162D01*
X26970024Y-13097105D01*
X26924615Y-12947415D01*
X26910841Y-12902006D01*
X26814734Y-12722202D01*
X26717803Y-12604092D01*
X26685396Y-12564604D01*
X26645908Y-12532197D01*
X25867807Y-11754097D01*
X25835396Y-11714604D01*
X25677797Y-11585266D01*
X25615787Y-11552121D01*
X25595472Y-11485150D01*
X25513405Y-11331614D01*
X25402962Y-11197038D01*
X25268386Y-11086595D01*
X25114850Y-11004528D01*
X24948254Y-10953992D01*
X24775000Y-10936928D01*
X24025000Y-10936928D01*
X23851746Y-10953992D01*
X23685150Y-11004528D01*
X23531614Y-11086595D01*
X23397038Y-11197038D01*
X23286595Y-11331614D01*
X23204528Y-11485150D01*
X23153992Y-11651746D01*
X23136928Y-11825000D01*
X23136928Y-13075000D01*
X23153992Y-13248254D01*
X23204528Y-13414850D01*
X23286595Y-13568386D01*
X23397038Y-13702962D01*
X23531614Y-13813405D01*
X23685150Y-13895472D01*
X23851746Y-13946008D01*
X24025000Y-13963072D01*
X24775000Y-13963072D01*
X24915000Y-13949283D01*
X24915000Y-14286972D01*
X24884180Y-14270498D01*
X24764482Y-14234188D01*
X24640000Y-14221928D01*
X23640000Y-14221928D01*
X23515518Y-14234188D01*
X23395820Y-14270498D01*
X23293856Y-14325000D01*
X21540827Y-14325000D01*
X21489999Y-14319994D01*
X21439171Y-14325000D01*
X21439162Y-14325000D01*
X21287105Y-14339976D01*
X21092007Y-14399159D01*
X20912203Y-14495266D01*
X20840077Y-14554458D01*
X20815226Y-14571063D01*
X20794092Y-14592197D01*
X20754604Y-14624604D01*
X20722197Y-14664092D01*
X20671063Y-14715226D01*
X20642671Y-14757717D01*
X20610266Y-14797203D01*
X20586187Y-14842252D01*
X20557795Y-14884744D01*
X20538236Y-14931964D01*
X20514160Y-14977007D01*
X20499335Y-15025878D01*
X20479774Y-15073102D01*
X20469803Y-15123232D01*
X20454977Y-15172105D01*
X20449971Y-15222933D01*
X20440000Y-15273061D01*
X20440000Y-15324172D01*
X20434994Y-15375000D01*
X19322166Y-15375000D01*
X19351185Y-15351185D01*
X19430537Y-15254494D01*
X19489502Y-15144180D01*
X19525812Y-15024482D01*
X19538072Y-14900000D01*
X19538072Y-14469647D01*
X19540007Y-14450000D01*
X19538072Y-14430353D01*
X19538072Y-14000000D01*
X19525812Y-13875518D01*
X19489502Y-13755820D01*
X19430537Y-13645506D01*
X19351185Y-13548815D01*
X19254494Y-13469463D01*
X19238393Y-13460857D01*
X19323000Y-13376250D01*
X19323000Y-12577000D01*
X19303000Y-12577000D01*
X19303000Y-12323000D01*
X19323000Y-12323000D01*
X19323000Y-12303000D01*
X19577000Y-12303000D01*
X19577000Y-12323000D01*
X19597000Y-12323000D01*
X19597000Y-12577000D01*
X19577000Y-12577000D01*
X19577000Y-13376250D01*
X19735750Y-13535000D01*
X19850000Y-13538072D01*
X19974482Y-13525812D01*
X20094180Y-13489502D01*
X20204494Y-13430537D01*
X20301185Y-13351185D01*
X20362538Y-13276426D01*
X20404528Y-13414850D01*
X20486595Y-13568386D01*
X20597038Y-13702962D01*
X20731614Y-13813405D01*
X20885150Y-13895472D01*
X21051746Y-13946008D01*
X21225000Y-13963072D01*
X21975000Y-13963072D01*
X22148254Y-13946008D01*
X22314850Y-13895472D01*
X22468386Y-13813405D01*
X22602962Y-13702962D01*
X22713405Y-13568386D01*
X22795472Y-13414850D01*
X22846008Y-13248254D01*
X22863072Y-13075000D01*
X22863072Y-11825000D01*
X22846008Y-11651746D01*
X22795472Y-11485150D01*
X22713405Y-11331614D01*
X22635000Y-11236077D01*
X22635000Y-10850838D01*
X22640007Y-10800000D01*
X22620024Y-10597105D01*
X22560841Y-10402007D01*
X22464734Y-10222203D01*
X22335396Y-10064604D01*
X22177797Y-9935266D01*
X21997993Y-9839159D01*
X21802895Y-9779976D01*
X21650838Y-9765000D01*
X21600000Y-9759993D01*
X21549162Y-9765000D01*
X18350827Y-9765000D01*
X18299999Y-9759994D01*
X18249171Y-9765000D01*
X18249162Y-9765000D01*
X18097105Y-9779976D01*
X17902007Y-9839159D01*
X17818309Y-9883896D01*
X17722202Y-9935266D01*
X17604092Y-10032197D01*
X17564604Y-10064604D01*
X17532197Y-10104092D01*
X16854092Y-10782198D01*
X16814605Y-10814604D01*
X16782198Y-10854092D01*
X16782197Y-10854093D01*
X16685266Y-10972203D01*
X16589160Y-11152007D01*
X16529977Y-11347105D01*
X16509994Y-11550000D01*
X16515001Y-11600837D01*
X16515001Y-11968803D01*
X16511928Y-12000000D01*
X16511928Y-12900000D01*
X16524188Y-13024482D01*
X16560498Y-13144180D01*
X16619463Y-13254494D01*
X16698815Y-13351185D01*
X16776574Y-13415000D01*
X15463923Y-13415000D01*
X15368386Y-13336595D01*
X15214850Y-13254528D01*
X15048254Y-13203992D01*
X14875000Y-13186928D01*
X13625000Y-13186928D01*
X13451746Y-13203992D01*
X13285150Y-13254528D01*
X13131614Y-13336595D01*
X12997038Y-13447038D01*
X12886595Y-13581614D01*
X12804528Y-13735150D01*
X12753992Y-13901746D01*
X12736928Y-14075000D01*
X1660000Y-14075000D01*
X1660000Y-4789721D01*
X2865000Y-4789721D01*
X2865000Y-5210279D01*
X2947047Y-5622756D01*
X3107988Y-6011302D01*
X3341637Y-6360983D01*
X3639017Y-6658363D01*
X3988698Y-6892012D01*
X4377244Y-7052953D01*
X4789721Y-7135000D01*
X5210279Y-7135000D01*
X5622756Y-7052953D01*
X6011302Y-6892012D01*
X6360983Y-6658363D01*
X6658363Y-6360983D01*
X6892012Y-6011302D01*
X7052953Y-5622756D01*
X7135000Y-5210279D01*
X7135000Y-4789721D01*
X29865000Y-4789721D01*
X29865000Y-5210279D01*
X29947047Y-5622756D01*
X30107988Y-6011302D01*
X30341637Y-6360983D01*
X30639017Y-6658363D01*
X30988698Y-6892012D01*
X31377244Y-7052953D01*
X31789721Y-7135000D01*
X32210279Y-7135000D01*
X32622756Y-7052953D01*
X33011302Y-6892012D01*
X33360983Y-6658363D01*
X33658363Y-6360983D01*
X33892012Y-6011302D01*
X34052953Y-5622756D01*
X34135000Y-5210279D01*
X34135000Y-4789721D01*
X34052953Y-4377244D01*
X33892012Y-3988698D01*
X33658363Y-3639017D01*
X33360983Y-3341637D01*
X33011302Y-3107988D01*
X32622756Y-2947047D01*
X32210279Y-2865000D01*
X31789721Y-2865000D01*
X31377244Y-2947047D01*
X30988698Y-3107988D01*
X30639017Y-3341637D01*
X30341637Y-3639017D01*
X30107988Y-3988698D01*
X29947047Y-4377244D01*
X29865000Y-4789721D01*
X7135000Y-4789721D01*
X7052953Y-4377244D01*
X6892012Y-3988698D01*
X6658363Y-3639017D01*
X6360983Y-3341637D01*
X6011302Y-3107988D01*
X5622756Y-2947047D01*
X5210279Y-2865000D01*
X4789721Y-2865000D01*
X4377244Y-2947047D01*
X3988698Y-3107988D01*
X3639017Y-3341637D01*
X3341637Y-3639017D01*
X3107988Y-3988698D01*
X2947047Y-4377244D01*
X2865000Y-4789721D01*
X1660000Y-4789721D01*
X1660000Y-1660000D01*
X35340000Y-1660000D01*
X35340001Y-35340000D01*
G37*
X35340001Y-35340000D02*
X1660000Y-35340000D01*
X1660000Y-31789721D01*
X2865000Y-31789721D01*
X2865000Y-32210279D01*
X2947047Y-32622756D01*
X3107988Y-33011302D01*
X3341637Y-33360983D01*
X3639017Y-33658363D01*
X3988698Y-33892012D01*
X4377244Y-34052953D01*
X4789721Y-34135000D01*
X5210279Y-34135000D01*
X5622756Y-34052953D01*
X6011302Y-33892012D01*
X6360983Y-33658363D01*
X6658363Y-33360983D01*
X6892012Y-33011302D01*
X7052953Y-32622756D01*
X7135000Y-32210279D01*
X7135000Y-31789721D01*
X29865000Y-31789721D01*
X29865000Y-32210279D01*
X29947047Y-32622756D01*
X30107988Y-33011302D01*
X30341637Y-33360983D01*
X30639017Y-33658363D01*
X30988698Y-33892012D01*
X31377244Y-34052953D01*
X31789721Y-34135000D01*
X32210279Y-34135000D01*
X32622756Y-34052953D01*
X33011302Y-33892012D01*
X33360983Y-33658363D01*
X33658363Y-33360983D01*
X33892012Y-33011302D01*
X34052953Y-32622756D01*
X34135000Y-32210279D01*
X34135000Y-31789721D01*
X34052953Y-31377244D01*
X33892012Y-30988698D01*
X33658363Y-30639017D01*
X33360983Y-30341637D01*
X33011302Y-30107988D01*
X32622756Y-29947047D01*
X32210279Y-29865000D01*
X31789721Y-29865000D01*
X31377244Y-29947047D01*
X30988698Y-30107988D01*
X30639017Y-30341637D01*
X30341637Y-30639017D01*
X30107988Y-30988698D01*
X29947047Y-31377244D01*
X29865000Y-31789721D01*
X7135000Y-31789721D01*
X7052953Y-31377244D01*
X6892012Y-30988698D01*
X6658363Y-30639017D01*
X6360983Y-30341637D01*
X6011302Y-30107988D01*
X5622756Y-29947047D01*
X5210279Y-29865000D01*
X4789721Y-29865000D01*
X4377244Y-29947047D01*
X3988698Y-30107988D01*
X3639017Y-30341637D01*
X3341637Y-30639017D01*
X3107988Y-30988698D01*
X2947047Y-31377244D01*
X2865000Y-31789721D01*
X1660000Y-31789721D01*
X1660000Y-24950000D01*
X16511928Y-24950000D01*
X16524188Y-25074482D01*
X16560498Y-25194180D01*
X16619463Y-25304494D01*
X16698815Y-25401185D01*
X16795506Y-25480537D01*
X16905820Y-25539502D01*
X17025518Y-25575812D01*
X17150000Y-25588072D01*
X17264250Y-25585000D01*
X17423000Y-25426250D01*
X17423000Y-24627000D01*
X16673750Y-24627000D01*
X16515000Y-24785750D01*
X16511928Y-24950000D01*
X1660000Y-24950000D01*
X1660000Y-22125000D01*
X12736928Y-22125000D01*
X12736928Y-22875000D01*
X12753992Y-23048254D01*
X12804528Y-23214850D01*
X12886595Y-23368386D01*
X12997038Y-23502962D01*
X13131614Y-23613405D01*
X13285150Y-23695472D01*
X13451746Y-23746008D01*
X13625000Y-23763072D01*
X14875000Y-23763072D01*
X15048254Y-23746008D01*
X15214850Y-23695472D01*
X15368386Y-23613405D01*
X15463923Y-23535000D01*
X16776574Y-23535000D01*
X16698815Y-23598815D01*
X16619463Y-23695506D01*
X16560498Y-23805820D01*
X16524188Y-23925518D01*
X16511928Y-24050000D01*
X16515000Y-24214250D01*
X16673750Y-24373000D01*
X17423000Y-24373000D01*
X17423000Y-24353000D01*
X17677000Y-24353000D01*
X17677000Y-24373000D01*
X17697000Y-24373000D01*
X17697000Y-24627000D01*
X17677000Y-24627000D01*
X17677000Y-25426250D01*
X17835750Y-25585000D01*
X17950000Y-25588072D01*
X18074482Y-25575812D01*
X18194180Y-25539502D01*
X18304494Y-25480537D01*
X18401185Y-25401185D01*
X18480537Y-25304494D01*
X18500000Y-25268082D01*
X18519463Y-25304494D01*
X18598815Y-25401185D01*
X18695506Y-25480537D01*
X18805820Y-25539502D01*
X18925518Y-25575812D01*
X19050000Y-25588072D01*
X19850000Y-25588072D01*
X19974482Y-25575812D01*
X20094180Y-25539502D01*
X20102603Y-25535000D01*
X20442024Y-25535000D01*
X20486595Y-25618386D01*
X20597038Y-25752962D01*
X20731614Y-25863405D01*
X20885150Y-25945472D01*
X21051746Y-25996008D01*
X21225000Y-26013072D01*
X21975000Y-26013072D01*
X22148254Y-25996008D01*
X22314850Y-25945472D01*
X22468386Y-25863405D01*
X22602962Y-25752962D01*
X22713405Y-25618386D01*
X22795472Y-25464850D01*
X22846008Y-25298254D01*
X22863072Y-25125000D01*
X22863072Y-23875000D01*
X22846008Y-23701746D01*
X22795472Y-23535150D01*
X22713405Y-23381614D01*
X22602962Y-23247038D01*
X22468386Y-23136595D01*
X22314850Y-23054528D01*
X22148254Y-23003992D01*
X21975000Y-22986928D01*
X21225000Y-22986928D01*
X21051746Y-23003992D01*
X20885150Y-23054528D01*
X20731614Y-23136595D01*
X20597038Y-23247038D01*
X20486595Y-23381614D01*
X20442024Y-23465000D01*
X20102603Y-23465000D01*
X20094180Y-23460498D01*
X19974482Y-23424188D01*
X19850000Y-23411928D01*
X19338095Y-23411928D01*
X19351185Y-23401185D01*
X19430537Y-23304494D01*
X19489502Y-23194180D01*
X19525812Y-23074482D01*
X19538072Y-22950000D01*
X19538072Y-22519647D01*
X19540007Y-22500000D01*
X19538072Y-22480353D01*
X19538072Y-22050000D01*
X19525812Y-21925518D01*
X19489502Y-21805820D01*
X19430537Y-21695506D01*
X19351185Y-21598815D01*
X19254494Y-21519463D01*
X19144180Y-21460498D01*
X19024482Y-21424188D01*
X18900000Y-21411928D01*
X18100000Y-21411928D01*
X17975518Y-21424188D01*
X17855820Y-21460498D01*
X17847397Y-21465000D01*
X15463923Y-21465000D01*
X15368386Y-21386595D01*
X15214850Y-21304528D01*
X15048254Y-21253992D01*
X14875000Y-21236928D01*
X13625000Y-21236928D01*
X13451746Y-21253992D01*
X13285150Y-21304528D01*
X13131614Y-21386595D01*
X12997038Y-21497038D01*
X12886595Y-21631614D01*
X12804528Y-21785150D01*
X12753992Y-21951746D01*
X12736928Y-22125000D01*
X1660000Y-22125000D01*
X1660000Y-16875000D01*
X12736928Y-16875000D01*
X12736928Y-17625000D01*
X12753992Y-17798254D01*
X12804528Y-17964850D01*
X12886595Y-18118386D01*
X12997038Y-18252962D01*
X13131614Y-18363405D01*
X13285150Y-18445472D01*
X13382491Y-18475000D01*
X13285150Y-18504528D01*
X13131614Y-18586595D01*
X12997038Y-18697038D01*
X12886595Y-18831614D01*
X12804528Y-18985150D01*
X12753992Y-19151746D01*
X12736928Y-19325000D01*
X12736928Y-20075000D01*
X12753992Y-20248254D01*
X12804528Y-20414850D01*
X12886595Y-20568386D01*
X12997038Y-20702962D01*
X13131614Y-20813405D01*
X13285150Y-20895472D01*
X13451746Y-20946008D01*
X13625000Y-20963072D01*
X14875000Y-20963072D01*
X15048254Y-20946008D01*
X15214850Y-20895472D01*
X15368386Y-20813405D01*
X15463923Y-20735000D01*
X16051939Y-20735000D01*
X16102057Y-20725031D01*
X16152895Y-20720024D01*
X16201777Y-20705196D01*
X16251898Y-20695226D01*
X16299113Y-20675669D01*
X16347993Y-20660841D01*
X16393042Y-20636762D01*
X16440256Y-20617205D01*
X16482746Y-20588814D01*
X16527797Y-20564734D01*
X16567284Y-20532328D01*
X16609774Y-20503937D01*
X16645908Y-20467803D01*
X16685396Y-20435396D01*
X16717803Y-20395908D01*
X16753937Y-20359774D01*
X16782328Y-20317284D01*
X16814734Y-20277797D01*
X16838814Y-20232746D01*
X16867205Y-20190256D01*
X16886762Y-20143042D01*
X16910841Y-20097993D01*
X16925669Y-20049113D01*
X16945226Y-20001898D01*
X16955196Y-19951777D01*
X16970024Y-19902895D01*
X16975031Y-19852057D01*
X16985000Y-19801939D01*
X16985000Y-19750838D01*
X16990007Y-19700000D01*
X16985000Y-19649162D01*
X16985000Y-19598061D01*
X16975031Y-19547943D01*
X16970024Y-19497105D01*
X16955196Y-19448223D01*
X16945226Y-19398102D01*
X16925669Y-19350887D01*
X16910841Y-19302007D01*
X16886762Y-19256958D01*
X16867205Y-19209744D01*
X16838814Y-19167254D01*
X16814734Y-19122203D01*
X16782328Y-19082716D01*
X16753937Y-19040226D01*
X16717803Y-19004092D01*
X16685396Y-18964604D01*
X16645908Y-18932197D01*
X16609774Y-18896063D01*
X16567284Y-18867672D01*
X16527797Y-18835266D01*
X16482746Y-18811186D01*
X16440256Y-18782795D01*
X16393042Y-18763238D01*
X16347993Y-18739159D01*
X16299113Y-18724331D01*
X16251898Y-18704774D01*
X16201777Y-18694804D01*
X16152895Y-18679976D01*
X16102057Y-18674969D01*
X16051939Y-18665000D01*
X15463923Y-18665000D01*
X15368386Y-18586595D01*
X15214850Y-18504528D01*
X15117509Y-18475000D01*
X15214850Y-18445472D01*
X15368386Y-18363405D01*
X15463923Y-18285000D01*
X16051939Y-18285000D01*
X16102057Y-18275031D01*
X16152895Y-18270024D01*
X16201777Y-18255196D01*
X16251898Y-18245226D01*
X16299113Y-18225669D01*
X16347993Y-18210841D01*
X16393042Y-18186762D01*
X16440256Y-18167205D01*
X16482746Y-18138814D01*
X16527797Y-18114734D01*
X16567284Y-18082328D01*
X16609774Y-18053937D01*
X16645908Y-18017803D01*
X16685396Y-17985396D01*
X16717803Y-17945908D01*
X16753937Y-17909774D01*
X16782328Y-17867284D01*
X16814734Y-17827797D01*
X16838814Y-17782746D01*
X16867205Y-17740256D01*
X16886762Y-17693042D01*
X16910841Y-17647993D01*
X16925669Y-17599113D01*
X16945226Y-17551898D01*
X16955196Y-17501777D01*
X16970024Y-17452895D01*
X16975031Y-17402057D01*
X16985000Y-17351939D01*
X16985000Y-17300838D01*
X16990007Y-17250000D01*
X16985000Y-17199162D01*
X16985000Y-17148061D01*
X16975031Y-17097943D01*
X16970024Y-17047105D01*
X16955196Y-16998223D01*
X16945226Y-16948102D01*
X16925669Y-16900887D01*
X16910841Y-16852007D01*
X16886762Y-16806958D01*
X16867205Y-16759744D01*
X16838814Y-16717254D01*
X16814734Y-16672203D01*
X16782328Y-16632716D01*
X16753937Y-16590226D01*
X16717803Y-16554092D01*
X16685396Y-16514604D01*
X16645908Y-16482197D01*
X16609774Y-16446063D01*
X16567284Y-16417672D01*
X16527797Y-16385266D01*
X16482746Y-16361186D01*
X16440256Y-16332795D01*
X16393042Y-16313238D01*
X16347993Y-16289159D01*
X16299113Y-16274331D01*
X16251898Y-16254774D01*
X16201777Y-16244804D01*
X16152895Y-16229976D01*
X16102057Y-16224969D01*
X16051939Y-16215000D01*
X15463923Y-16215000D01*
X15368386Y-16136595D01*
X15214850Y-16054528D01*
X15048254Y-16003992D01*
X14875000Y-15986928D01*
X13625000Y-15986928D01*
X13451746Y-16003992D01*
X13285150Y-16054528D01*
X13131614Y-16136595D01*
X12997038Y-16247038D01*
X12886595Y-16381614D01*
X12804528Y-16535150D01*
X12753992Y-16701746D01*
X12736928Y-16875000D01*
X1660000Y-16875000D01*
X1660000Y-14075000D01*
X12736928Y-14075000D01*
X12736928Y-14825000D01*
X12753992Y-14998254D01*
X12804528Y-15164850D01*
X12886595Y-15318386D01*
X12997038Y-15452962D01*
X13131614Y-15563405D01*
X13285150Y-15645472D01*
X13451746Y-15696008D01*
X13625000Y-15713072D01*
X14875000Y-15713072D01*
X15048254Y-15696008D01*
X15214850Y-15645472D01*
X15368386Y-15563405D01*
X15463923Y-15485000D01*
X17847397Y-15485000D01*
X17855820Y-15489502D01*
X17975518Y-15525812D01*
X18100000Y-15538072D01*
X18900000Y-15538072D01*
X19024482Y-15525812D01*
X19144180Y-15489502D01*
X19254494Y-15430537D01*
X19322166Y-15375000D01*
X20434994Y-15375000D01*
X20440000Y-15425828D01*
X20440000Y-15476939D01*
X20449971Y-15527067D01*
X20454977Y-15577895D01*
X20469803Y-15626768D01*
X20479774Y-15676898D01*
X20499335Y-15724122D01*
X20514160Y-15772993D01*
X20538236Y-15818036D01*
X20557795Y-15865256D01*
X20586187Y-15907748D01*
X20610266Y-15952797D01*
X20642672Y-15992284D01*
X20671063Y-16034774D01*
X20707197Y-16070908D01*
X20739604Y-16110396D01*
X20779092Y-16142803D01*
X20815226Y-16178937D01*
X20857716Y-16207328D01*
X20897203Y-16239734D01*
X20942252Y-16263813D01*
X20984744Y-16292205D01*
X21031964Y-16311764D01*
X21077007Y-16335840D01*
X21125878Y-16350665D01*
X21173102Y-16370226D01*
X21223232Y-16380197D01*
X21272105Y-16395023D01*
X21322933Y-16400029D01*
X21373061Y-16410000D01*
X21424172Y-16410000D01*
X21475000Y-16415006D01*
X21525828Y-16410000D01*
X21576939Y-16410000D01*
X21627067Y-16400029D01*
X21677895Y-16395023D01*
X21677971Y-16395000D01*
X23025530Y-16395000D01*
X23005000Y-16498212D01*
X23005000Y-16721788D01*
X23048617Y-16941067D01*
X23134176Y-17147624D01*
X23192559Y-17235000D01*
X23134176Y-17322376D01*
X23048617Y-17528933D01*
X23005000Y-17748212D01*
X23005000Y-17971788D01*
X23048617Y-18191067D01*
X23134176Y-18397624D01*
X23192559Y-18485000D01*
X23134176Y-18572376D01*
X23048617Y-18778933D01*
X23005000Y-18998212D01*
X23005000Y-19221788D01*
X23048617Y-19441067D01*
X23134176Y-19647624D01*
X23192559Y-19735000D01*
X23134176Y-19822376D01*
X23048617Y-20028933D01*
X23005000Y-20248212D01*
X23005000Y-20471788D01*
X23048617Y-20691067D01*
X23134176Y-20897624D01*
X23225240Y-21033911D01*
X23148412Y-21046550D01*
X23057542Y-21250826D01*
X23008269Y-21468905D01*
X23002489Y-21692406D01*
X23040423Y-21912740D01*
X23120613Y-22121440D01*
X23148412Y-22173450D01*
X23361834Y-22208561D01*
X23960395Y-21610000D01*
X23946253Y-21595858D01*
X24047110Y-21495000D01*
X24232890Y-21495000D01*
X24333748Y-21595858D01*
X24319605Y-21610000D01*
X24333748Y-21624143D01*
X24154143Y-21803748D01*
X24140000Y-21789605D01*
X23541439Y-22388166D01*
X23576550Y-22601588D01*
X23780826Y-22692458D01*
X23998905Y-22741731D01*
X24222406Y-22747511D01*
X24442740Y-22709577D01*
X24651440Y-22629387D01*
X24703450Y-22601588D01*
X24738561Y-22388169D01*
X24815000Y-22464608D01*
X24815000Y-22990868D01*
X24775000Y-22986928D01*
X24025000Y-22986928D01*
X23851746Y-23003992D01*
X23685150Y-23054528D01*
X23531614Y-23136595D01*
X23397038Y-23247038D01*
X23286595Y-23381614D01*
X23204528Y-23535150D01*
X23153992Y-23701746D01*
X23136928Y-23875000D01*
X23136928Y-25125000D01*
X23153992Y-25298254D01*
X23204528Y-25464850D01*
X23286595Y-25618386D01*
X23397038Y-25752962D01*
X23531614Y-25863405D01*
X23685150Y-25945472D01*
X23851746Y-25996008D01*
X24025000Y-26013072D01*
X24775000Y-26013072D01*
X24948254Y-25996008D01*
X25114850Y-25945472D01*
X25268386Y-25863405D01*
X25402962Y-25752962D01*
X25513405Y-25618386D01*
X25595472Y-25464850D01*
X25646008Y-25298254D01*
X25649280Y-25265036D01*
X25685396Y-25235396D01*
X25717807Y-25195903D01*
X26545908Y-24367803D01*
X26585396Y-24335396D01*
X26684818Y-24214250D01*
X26714734Y-24177798D01*
X26810840Y-23997994D01*
X26810841Y-23997993D01*
X26870024Y-23802895D01*
X26885000Y-23650838D01*
X26885000Y-23650829D01*
X26890006Y-23600001D01*
X26885000Y-23549173D01*
X26885000Y-18913721D01*
X26890006Y-18862893D01*
X26885000Y-18812065D01*
X26885000Y-18812056D01*
X26870024Y-18659999D01*
X26810841Y-18464901D01*
X26756590Y-18363405D01*
X26714734Y-18285096D01*
X26617803Y-18166986D01*
X26585396Y-18127498D01*
X26545908Y-18095091D01*
X25685816Y-17235000D01*
X26645908Y-16274909D01*
X26685396Y-16242502D01*
X26717803Y-16203014D01*
X26814734Y-16084904D01*
X26885346Y-15952797D01*
X26910841Y-15905099D01*
X26970024Y-15710001D01*
X26985000Y-15557944D01*
X26985000Y-15557941D01*
X26990007Y-15507106D01*
X26985000Y-15456271D01*
X26985000Y-13350835D01*
X26990007Y-13300000D01*
X26985000Y-13249162D01*
X26970024Y-13097105D01*
X26924615Y-12947415D01*
X26910841Y-12902006D01*
X26814734Y-12722202D01*
X26717803Y-12604092D01*
X26685396Y-12564604D01*
X26645908Y-12532197D01*
X25867807Y-11754097D01*
X25835396Y-11714604D01*
X25677797Y-11585266D01*
X25615787Y-11552121D01*
X25595472Y-11485150D01*
X25513405Y-11331614D01*
X25402962Y-11197038D01*
X25268386Y-11086595D01*
X25114850Y-11004528D01*
X24948254Y-10953992D01*
X24775000Y-10936928D01*
X24025000Y-10936928D01*
X23851746Y-10953992D01*
X23685150Y-11004528D01*
X23531614Y-11086595D01*
X23397038Y-11197038D01*
X23286595Y-11331614D01*
X23204528Y-11485150D01*
X23153992Y-11651746D01*
X23136928Y-11825000D01*
X23136928Y-13075000D01*
X23153992Y-13248254D01*
X23204528Y-13414850D01*
X23286595Y-13568386D01*
X23397038Y-13702962D01*
X23531614Y-13813405D01*
X23685150Y-13895472D01*
X23851746Y-13946008D01*
X24025000Y-13963072D01*
X24775000Y-13963072D01*
X24915000Y-13949283D01*
X24915000Y-14286972D01*
X24884180Y-14270498D01*
X24764482Y-14234188D01*
X24640000Y-14221928D01*
X23640000Y-14221928D01*
X23515518Y-14234188D01*
X23395820Y-14270498D01*
X23293856Y-14325000D01*
X21540827Y-14325000D01*
X21489999Y-14319994D01*
X21439171Y-14325000D01*
X21439162Y-14325000D01*
X21287105Y-14339976D01*
X21092007Y-14399159D01*
X20912203Y-14495266D01*
X20840077Y-14554458D01*
X20815226Y-14571063D01*
X20794092Y-14592197D01*
X20754604Y-14624604D01*
X20722197Y-14664092D01*
X20671063Y-14715226D01*
X20642671Y-14757717D01*
X20610266Y-14797203D01*
X20586187Y-14842252D01*
X20557795Y-14884744D01*
X20538236Y-14931964D01*
X20514160Y-14977007D01*
X20499335Y-15025878D01*
X20479774Y-15073102D01*
X20469803Y-15123232D01*
X20454977Y-15172105D01*
X20449971Y-15222933D01*
X20440000Y-15273061D01*
X20440000Y-15324172D01*
X20434994Y-15375000D01*
X19322166Y-15375000D01*
X19351185Y-15351185D01*
X19430537Y-15254494D01*
X19489502Y-15144180D01*
X19525812Y-15024482D01*
X19538072Y-14900000D01*
X19538072Y-14469647D01*
X19540007Y-14450000D01*
X19538072Y-14430353D01*
X19538072Y-14000000D01*
X19525812Y-13875518D01*
X19489502Y-13755820D01*
X19430537Y-13645506D01*
X19351185Y-13548815D01*
X19254494Y-13469463D01*
X19238393Y-13460857D01*
X19323000Y-13376250D01*
X19323000Y-12577000D01*
X19303000Y-12577000D01*
X19303000Y-12323000D01*
X19323000Y-12323000D01*
X19323000Y-12303000D01*
X19577000Y-12303000D01*
X19577000Y-12323000D01*
X19597000Y-12323000D01*
X19597000Y-12577000D01*
X19577000Y-12577000D01*
X19577000Y-13376250D01*
X19735750Y-13535000D01*
X19850000Y-13538072D01*
X19974482Y-13525812D01*
X20094180Y-13489502D01*
X20204494Y-13430537D01*
X20301185Y-13351185D01*
X20362538Y-13276426D01*
X20404528Y-13414850D01*
X20486595Y-13568386D01*
X20597038Y-13702962D01*
X20731614Y-13813405D01*
X20885150Y-13895472D01*
X21051746Y-13946008D01*
X21225000Y-13963072D01*
X21975000Y-13963072D01*
X22148254Y-13946008D01*
X22314850Y-13895472D01*
X22468386Y-13813405D01*
X22602962Y-13702962D01*
X22713405Y-13568386D01*
X22795472Y-13414850D01*
X22846008Y-13248254D01*
X22863072Y-13075000D01*
X22863072Y-11825000D01*
X22846008Y-11651746D01*
X22795472Y-11485150D01*
X22713405Y-11331614D01*
X22635000Y-11236077D01*
X22635000Y-10850838D01*
X22640007Y-10800000D01*
X22620024Y-10597105D01*
X22560841Y-10402007D01*
X22464734Y-10222203D01*
X22335396Y-10064604D01*
X22177797Y-9935266D01*
X21997993Y-9839159D01*
X21802895Y-9779976D01*
X21650838Y-9765000D01*
X21600000Y-9759993D01*
X21549162Y-9765000D01*
X18350827Y-9765000D01*
X18299999Y-9759994D01*
X18249171Y-9765000D01*
X18249162Y-9765000D01*
X18097105Y-9779976D01*
X17902007Y-9839159D01*
X17818309Y-9883896D01*
X17722202Y-9935266D01*
X17604092Y-10032197D01*
X17564604Y-10064604D01*
X17532197Y-10104092D01*
X16854092Y-10782198D01*
X16814605Y-10814604D01*
X16782198Y-10854092D01*
X16782197Y-10854093D01*
X16685266Y-10972203D01*
X16589160Y-11152007D01*
X16529977Y-11347105D01*
X16509994Y-11550000D01*
X16515001Y-11600837D01*
X16515001Y-11968803D01*
X16511928Y-12000000D01*
X16511928Y-12900000D01*
X16524188Y-13024482D01*
X16560498Y-13144180D01*
X16619463Y-13254494D01*
X16698815Y-13351185D01*
X16776574Y-13415000D01*
X15463923Y-13415000D01*
X15368386Y-13336595D01*
X15214850Y-13254528D01*
X15048254Y-13203992D01*
X14875000Y-13186928D01*
X13625000Y-13186928D01*
X13451746Y-13203992D01*
X13285150Y-13254528D01*
X13131614Y-13336595D01*
X12997038Y-13447038D01*
X12886595Y-13581614D01*
X12804528Y-13735150D01*
X12753992Y-13901746D01*
X12736928Y-14075000D01*
X1660000Y-14075000D01*
X1660000Y-4789721D01*
X2865000Y-4789721D01*
X2865000Y-5210279D01*
X2947047Y-5622756D01*
X3107988Y-6011302D01*
X3341637Y-6360983D01*
X3639017Y-6658363D01*
X3988698Y-6892012D01*
X4377244Y-7052953D01*
X4789721Y-7135000D01*
X5210279Y-7135000D01*
X5622756Y-7052953D01*
X6011302Y-6892012D01*
X6360983Y-6658363D01*
X6658363Y-6360983D01*
X6892012Y-6011302D01*
X7052953Y-5622756D01*
X7135000Y-5210279D01*
X7135000Y-4789721D01*
X29865000Y-4789721D01*
X29865000Y-5210279D01*
X29947047Y-5622756D01*
X30107988Y-6011302D01*
X30341637Y-6360983D01*
X30639017Y-6658363D01*
X30988698Y-6892012D01*
X31377244Y-7052953D01*
X31789721Y-7135000D01*
X32210279Y-7135000D01*
X32622756Y-7052953D01*
X33011302Y-6892012D01*
X33360983Y-6658363D01*
X33658363Y-6360983D01*
X33892012Y-6011302D01*
X34052953Y-5622756D01*
X34135000Y-5210279D01*
X34135000Y-4789721D01*
X34052953Y-4377244D01*
X33892012Y-3988698D01*
X33658363Y-3639017D01*
X33360983Y-3341637D01*
X33011302Y-3107988D01*
X32622756Y-2947047D01*
X32210279Y-2865000D01*
X31789721Y-2865000D01*
X31377244Y-2947047D01*
X30988698Y-3107988D01*
X30639017Y-3341637D01*
X30341637Y-3639017D01*
X30107988Y-3988698D01*
X29947047Y-4377244D01*
X29865000Y-4789721D01*
X7135000Y-4789721D01*
X7052953Y-4377244D01*
X6892012Y-3988698D01*
X6658363Y-3639017D01*
X6360983Y-3341637D01*
X6011302Y-3107988D01*
X5622756Y-2947047D01*
X5210279Y-2865000D01*
X4789721Y-2865000D01*
X4377244Y-2947047D01*
X3988698Y-3107988D01*
X3639017Y-3341637D01*
X3341637Y-3639017D01*
X3107988Y-3988698D01*
X2947047Y-4377244D01*
X2865000Y-4789721D01*
X1660000Y-4789721D01*
X1660000Y-1660000D01*
X35340000Y-1660000D01*
X35340001Y-35340000D01*
%TD*%
M02*
